<svg width="40" height="40" viewBox="0 0 40 40" fill="none" xmlns="http://www.w3.org/2000/svg">
<path d="M20 3.33334C10.8 3.33334 3.33334 10.8 3.33334 20C3.33334 29.2 10.8 36.6667 20 36.6667C29.2 36.6667 36.6667 29.2 36.6667 20C36.6667 10.8 29.2 3.33334 20 3.33334ZM20 28.3333C19.0833 28.3333 18.3333 27.5833 18.3333 26.6667V20C18.3333 19.0833 19.0833 18.3333 20 18.3333C20.9167 18.3333 21.6667 19.0833 21.6667 20V26.6667C21.6667 27.5833 20.9167 28.3333 20 28.3333ZM21.6667 15H18.3333V11.6667H21.6667V15Z" fill="#F1C40F"/>
</svg>
